<svg width="48" height="48" viewBox="0 0 48 48" fill="none" xmlns="http://www.w3.org/2000/svg">
<rect width="48" height="48" fill="#F7F7F7"/>
<path d="M23.5 42C28.1413 42 32.5925 40.1563 35.8744 36.8744C39.1563 33.5925 41 29.1413 41 24.5C41 19.8587 39.1563 15.4075 35.8744 12.1256C32.5925 8.84374 28.1413 7 23.5 7C18.8587 7 14.4075 8.84374 11.1256 12.1256C7.84374 15.4075 6 19.8587 6 24.5C6 29.1413 7.84374 33.5925 11.1256 36.8744C14.4075 40.1563 18.8587 42 23.5 42ZM21.8594 30.5156V26.1406H17.4844C16.5752 26.1406 15.8438 25.4092 15.8438 24.5C15.8438 23.5908 16.5752 22.8594 17.4844 22.8594H21.8594V18.4844C21.8594 17.5752 22.5908 16.8438 23.5 16.8438C24.4092 16.8438 25.1406 17.5752 25.1406 18.4844V22.8594H29.5156C30.4248 22.8594 31.1562 23.5908 31.1562 24.5C31.1562 25.4092 30.4248 26.1406 29.5156 26.1406H25.1406V30.5156C25.1406 31.4248 24.4092 32.1562 23.5 32.1562C22.5908 32.1562 21.8594 31.4248 21.8594 30.5156Z" fill="#756767"/>
</svg>
