<svg width="48" height="48" viewBox="0 0 48 48" fill="none" xmlns="http://www.w3.org/2000/svg">
<path d="M7.52905 1.25H40.4709C43.9388 1.25 46.75 4.06123 46.75 7.52905V40.4709C46.75 43.9388 43.9388 46.75 40.4709 46.75H7.52905C4.06123 46.75 1.25 43.9388 1.25 40.4709V7.52905C1.25 4.06123 4.06123 1.25 7.52905 1.25Z" fill="#EBEBEB" stroke="#5F5B5B" stroke-width="2.5"/>
<path d="M20.1378 20.1378L20.1425 20.1331C20.1956 20.0794 20.2911 20.0725 20.3564 20.1378L23.1103 22.8917L23.9941 23.7756L24.878 22.8917L27.6319 20.1378L27.6319 20.1378L27.6366 20.1331C27.6838 20.0854 27.7828 20.0708 27.8552 20.1425C27.9089 20.1956 27.9157 20.2911 27.8505 20.3564L25.0966 23.1103L24.2127 23.9941L25.0966 24.878L27.8505 27.6319L27.8505 27.6319L27.8552 27.6366C27.9029 27.6838 27.9174 27.7828 27.8458 27.8552C27.7927 27.9089 27.6972 27.9157 27.6319 27.8505L24.878 25.0966L23.9941 24.2127L23.1103 25.0966L20.3564 27.8505L20.3563 27.8505L20.3516 27.8552C20.3044 27.9029 20.2055 27.9174 20.1331 27.8458C20.0794 27.7927 20.0725 27.6972 20.1378 27.6319L22.8917 24.878L23.7756 23.9941L22.8917 23.1103L20.1378 20.3564L20.1378 20.3563L20.1331 20.3516C20.0794 20.2985 20.0725 20.203 20.1378 20.1378ZM33.5017 14.4983C30.9817 11.9782 27.5638 10.5625 24 10.5625C20.4362 10.5625 17.0183 11.9782 14.4983 14.4983C11.9782 17.0183 10.5625 20.4362 10.5625 24C10.5625 27.5638 11.9782 30.9817 14.4983 33.5017C17.0183 36.0218 20.4362 37.4375 24 37.4375C27.5638 37.4375 30.9817 36.0218 33.5017 33.5017C36.0218 30.9817 37.4375 27.5638 37.4375 24C37.4375 20.4362 36.0218 17.0183 33.5017 14.4983ZM33.7227 33.7227C31.1441 36.3013 27.6467 37.75 24 37.75C20.3533 37.75 16.8559 36.3013 14.2773 33.7227C11.6987 31.1441 10.25 27.6467 10.25 24C10.25 20.3533 11.6987 16.8559 14.2773 14.2773C16.8559 11.6987 20.3533 10.25 24 10.25C27.6467 10.25 31.1441 11.6987 33.7227 14.2773C36.3013 16.8559 37.75 20.3533 37.75 24C37.75 27.6467 36.3013 31.1441 33.7227 33.7227Z" fill="#5F5B5B" stroke="#5F5B5B" stroke-width="2.5"/>
</svg>
