<svg width="48" height="48" viewBox="0 0 48 48" fill="none" xmlns="http://www.w3.org/2000/svg">
<rect width="48" height="48" fill="#F7F7F7"/>
<path d="M40.9908 24.4658C40.9908 25.6963 40.0793 26.6602 39.0462 26.6602H37.1016L37.1441 37.6113C37.1441 37.7959 37.132 37.9805 37.1138 38.165V39.2656C37.1138 40.7764 36.026 42 34.683 42H33.7107C33.6438 42 33.577 42 33.5102 41.9932C33.4251 42 33.34 42 33.2549 42H31.2799H29.8215C28.4785 42 27.3907 40.7764 27.3907 39.2656V37.625V33.25C27.3907 32.04 26.5217 31.0625 25.4461 31.0625H21.5569C20.4813 31.0625 19.6123 32.04 19.6123 33.25V37.625V39.2656C19.6123 40.7764 18.5245 42 17.1815 42H15.723H13.7845C13.6934 42 13.6022 41.9932 13.5111 41.9863C13.4381 41.9932 13.3652 42 13.2923 42H12.32C10.977 42 9.88922 40.7764 9.88922 39.2656V31.6094C9.88922 31.5479 9.88922 31.4795 9.8953 31.418V26.6602H7.94461C6.85077 26.6602 6 25.7031 6 24.4658C6 23.8506 6.18231 23.3037 6.60769 22.8252L22.1889 7.54688C22.6143 7.06836 23.1004 7 23.5258 7C23.9512 7 24.4373 7.13672 24.8019 7.47852L40.3224 22.8252C40.8085 23.3037 41.0516 23.8506 40.9908 24.4658Z" fill="#756767"/>
</svg>
