<svg width="48" height="48" viewBox="0 0 48 48" fill="none" xmlns="http://www.w3.org/2000/svg">
<rect width="48" height="48" fill="#F7F7F7"/>
<path d="M31.833 12.7734L40.2275 22.3672C40.7197 22.9297 41 23.7031 41 24.5C41 25.2969 40.7197 26.0703 40.2275 26.6328L31.833 36.2266C31.3955 36.7266 30.8076 37 30.1924 37C28.9141 37 27.875 35.8125 27.875 34.3516V29.5H19.125C17.915 29.5 16.9375 28.3828 16.9375 27V22C16.9375 20.6172 17.915 19.5 19.125 19.5H27.875V14.6484C27.875 13.1875 28.9141 12 30.1924 12C30.8076 12 31.3955 12.2812 31.833 12.7734ZM16.9375 12H12.5625C11.3525 12 10.375 13.1172 10.375 14.5V34.5C10.375 35.8828 11.3525 37 12.5625 37H16.9375C18.1475 37 19.125 38.1172 19.125 39.5C19.125 40.8828 18.1475 42 16.9375 42H12.5625C8.93945 42 6 38.6406 6 34.5V14.5C6 10.3594 8.93945 7 12.5625 7H16.9375C18.1475 7 19.125 8.11719 19.125 9.5C19.125 10.8828 18.1475 12 16.9375 12Z" fill="#756767"/>
</svg>
